<svg width="36" height="36" viewBox="0 0 36 36" fill="none" xmlns="http://www.w3.org/2000/svg">
<path d="M30.6 8.1C30.6 9.59117 29.3912 10.8 27.9 10.8C26.4088 10.8 25.2 9.59117 25.2 8.1C25.2 6.60883 26.4088 5.4 27.9 5.4C29.3912 5.4 30.6 6.60883 30.6 8.1Z" fill="white"/>
<path fill-rule="evenodd" clip-rule="evenodd" d="M18 27C22.9706 27 27 22.9706 27 18C27 13.0294 22.9706 9 18 9C13.0294 9 9 13.0294 9 18C9 22.9706 13.0294 27 18 27ZM18 23.4C20.9823 23.4 23.4 20.9823 23.4 18C23.4 15.0177 20.9823 12.6 18 12.6C15.0177 12.6 12.6 15.0177 12.6 18C12.6 20.9823 15.0177 23.4 18 23.4Z" fill="white"/>
<path fill-rule="evenodd" clip-rule="evenodd" d="M0 17.28C0 11.2314 0 8.20715 1.17713 5.8969C2.21256 3.86475 3.86475 2.21256 5.8969 1.17713C8.20715 0 11.2314 0 17.28 0H18.72C24.7686 0 27.7929 0 30.1031 1.17713C32.1352 2.21256 33.7874 3.86475 34.8229 5.8969C36 8.20715 36 11.2314 36 17.28V18.72C36 24.7686 36 27.7929 34.8229 30.1031C33.7874 32.1352 32.1352 33.7874 30.1031 34.8229C27.7929 36 24.7686 36 18.72 36H17.28C11.2314 36 8.20715 36 5.8969 34.8229C3.86475 33.7874 2.21256 32.1352 1.17713 30.1031C0 27.7929 0 24.7686 0 18.72V17.28ZM17.28 3.6H18.72C21.8037 3.6 23.8999 3.6028 25.5203 3.73519C27.0986 3.86414 27.9057 4.09787 28.4687 4.38475C29.8235 5.07504 30.925 6.1765 31.6152 7.53127C31.9021 8.09431 32.1359 8.90144 32.2648 10.4797C32.3972 12.1001 32.4 14.1963 32.4 17.28V18.72C32.4 21.8037 32.3972 23.8999 32.2648 25.5203C32.1359 27.0986 31.9021 27.9057 31.6152 28.4687C30.925 29.8235 29.8235 30.925 28.4687 31.6152C27.9057 31.9021 27.0986 32.1359 25.5203 32.2648C23.8999 32.3972 21.8037 32.4 18.72 32.4H17.28C14.1963 32.4 12.1001 32.3972 10.4797 32.2648C8.90144 32.1359 8.09431 31.9021 7.53127 31.6152C6.1765 30.925 5.07504 29.8235 4.38475 28.4687C4.09787 27.9057 3.86414 27.0986 3.73519 25.5203C3.6028 23.8999 3.6 21.8037 3.6 18.72V17.28C3.6 14.1963 3.6028 12.1001 3.73519 10.4797C3.86414 8.90144 4.09787 8.09431 4.38475 7.53127C5.07504 6.1765 6.1765 5.07504 7.53127 4.38475C8.09431 4.09787 8.90144 3.86414 10.4797 3.73519C12.1001 3.6028 14.1963 3.6 17.28 3.6Z" fill="white"/>
</svg>
