<svg width="50" height="51" viewBox="0 0 50 51" fill="none" xmlns="http://www.w3.org/2000/svg">
<rect y="0.990234" width="49.0197" height="49.7101" rx="24.5099" fill="white"/>
<path d="M18.7568 15.0413C18.7568 16.7004 17.34 18.0455 15.5923 18.0455C13.8445 18.0455 12.4277 16.7004 12.4277 15.0413C12.4277 13.3821 13.8445 12.0371 15.5923 12.0371C17.34 12.0371 18.7568 13.3821 18.7568 15.0413Z" fill="#F45835"/>
<path d="M12.8605 20.2537H18.27V36.8922H12.8605V20.2537Z" fill="#F45835"/>
<path d="M26.9792 20.2537H21.5697V36.8922H26.9792C26.9792 36.8922 26.9792 31.6541 26.9792 28.3791C26.9792 26.4133 27.6405 24.439 30.279 24.439C33.2608 24.439 33.2429 27.0115 33.229 29.0044C33.2108 31.6095 33.2542 34.2679 33.2542 36.8922H38.6636V28.1107C38.6178 22.5035 37.1784 19.9199 32.4428 19.9199C29.6304 19.9199 27.8872 21.2158 26.9792 22.3883V20.2537Z" fill="#F45835"/>
</svg>
