<svg width="1823" height="778" viewBox="0 0 1823 778" fill="none" xmlns="http://www.w3.org/2000/svg">
<path d="M497.7 378.82V375.22C497.7 361.72 490.5 351.82 476.1 350.02L365.4 333.82C339.3 330.22 322.2 340.12 322.2 359.92V365.32C296.1 341.92 260.1 327.52 213.3 327.52C99.9 327.52 0 418.42 0 552.52C0 700.12 103.5 777.52 212.4 777.52C256.5 777.52 296.1 763.12 322.2 737.92V746.02C322.2 759.52 332.1 768.52 345.6 768.52H474.3C486 768.52 494.1 762.22 494.1 751.42V747.82C494.1 722.62 458.1 711.82 458.1 670.42V459.82C458.1 410.32 497.7 397.72 497.7 378.82ZM248.4 733.42C180.9 730.72 151.2 557.92 153.9 482.32C156.6 410.32 180.9 371.62 225 371.62C266.4 371.62 306 416.62 306 484.12V657.82C306 706.42 279 734.32 248.4 733.42Z" fill="white"/>
<path d="M1000.41 670.42V112.42C1000.41 88.1195 986.906 82.7195 960.806 90.8195L820.406 133.12C807.806 136.72 799.706 146.62 799.706 156.52V159.219C799.706 185.32 847.406 190.72 847.406 233.02V352.72C823.106 336.52 792.506 327.52 754.706 327.52C641.306 327.52 541.406 418.42 541.406 552.52C541.406 700.12 644.906 777.52 753.806 777.52C797.906 777.52 836.606 763.12 863.606 737.92V746.02C863.606 759.52 872.606 768.52 887.006 768.52H1015.71C1028.31 768.52 1036.41 762.22 1036.41 751.42V747.82C1036.41 722.62 1000.41 711.82 1000.41 670.42ZM789.806 733.42C722.306 730.72 692.606 557.92 695.306 482.32C698.006 410.32 722.306 371.62 766.406 371.62C807.806 371.62 847.406 426.52 847.406 484.12V657.82C847.406 706.42 820.406 734.32 789.806 733.42Z" fill="white"/>
<path d="M1580.05 0H1598.05C1601.91 1.69 1605.95 3.07 1609.6 5.13C1622.8 12.57 1629.01 25.58 1627.15 40.64C1626.21 48.24 1623.67 55.35 1621.08 62.45C1596.17 130.89 1571.25 199.33 1546.3 267.77C1540.56 283.57 1535.3 299.54 1529.79 315.44C1530.99 314.363 1531.87 312.98 1532.34 311.44C1538.88 295.3 1545.34 279.1 1551.98 263.02C1573.86 210.36 1598.46 158.91 1621.56 106.8C1632.12 82.97 1643.36 59.49 1657.89 37.74C1666.12 25.41 1676.96 16.79 1691.64 13.27C1712.8 8.18 1739.28 22.96 1736.92 51.27C1735.86 63.95 1731.27 75.58 1726.79 87.2C1700.79 154.75 1669.62 220.03 1639.22 285.64C1625.09 316.13 1610.04 346.19 1596.79 377.09C1595.9 379.17 1595.09 381.28 1594.24 383.38C1595.63 382.733 1596.74 381.603 1597.37 380.2C1635.37 309.31 1671.47 237.46 1708.16 165.91C1716.87 148.826 1726.48 132.213 1736.94 116.14C1743.44 106.2 1751.09 97.29 1761.49 91.09C1785.93 76.53 1812.82 86.36 1821.9 113.21C1822.24 114.21 1822.6 115.21 1822.9 116.21V135.21C1820.6 143.152 1817.69 150.902 1814.19 158.39C1794.1 200.29 1773.9 242.13 1754.19 284.22C1727.41 341.5 1703.93 400.14 1682.93 459.78C1682.19 461.741 1681.86 463.833 1681.95 465.927C1682.05 468.021 1682.57 470.073 1683.48 471.96C1690.05 486.75 1696.25 501.72 1702.83 516.51C1716.63 547.51 1728.67 579.36 1744.1 609.65C1756.64 634.28 1769.38 658.8 1782.54 683.1C1785.86 689.24 1785.54 693.52 1781.64 699.24C1760.54 730.32 1730.64 749.24 1696.18 761.83C1650.38 778.65 1603.18 780.77 1555.12 775.19C1548 774.36 1544.53 771.34 1541.71 765.02C1521.17 718.87 1500.28 672.89 1479.48 626.85C1478.24 624.1 1476.88 621.41 1475.01 617.52C1474.01 621 1473.32 622.99 1472.76 625C1464 656.29 1449.68 684.74 1428.46 709.41C1408.23 732.94 1384.28 751.58 1353.82 759.73C1301.07 773.83 1248.76 770.49 1198.58 749.73C1132.22 722.29 1089.33 673.73 1074.39 602.38C1069.66 579.79 1072.69 558.61 1087.99 540.21C1100.99 524.55 1119.46 519.9 1138.37 527.49C1150.03 532.18 1158.3 540.49 1164.31 551.23C1169.51 560.663 1173.74 570.597 1176.94 580.88C1179.22 588.09 1180.61 595.73 1183.94 602.45C1206.94 649.7 1254.3 674.09 1303.05 663.88C1333.79 657.45 1358.73 641.83 1372.37 612.3C1385.45 583.95 1390.18 553.97 1384.37 523.17C1370.64 450.93 1296.27 414.09 1233.37 450.04C1217.37 459.16 1204.3 471.57 1191.81 484.77C1183.95 493.08 1176.81 502.04 1168.35 509.77C1158.84 518.55 1148.02 524.44 1134.62 523.39C1111 521.55 1093.5 502.53 1091.89 478.11C1090.46 456.54 1096.97 437.41 1108.89 419.97C1152.44 356.3 1230.6 323.58 1310.3 341.46C1350.94 350.57 1385.79 370.86 1416.43 398.74C1420.52 402.46 1421.05 402.36 1422.54 397.22C1432.01 364.6 1442.78 332.39 1453.22 300.07C1481.15 213.66 1510.48 127.72 1539.83 41.79C1546.54 21.64 1558.48 6.12 1580.05 0Z" fill="white"/>
</svg>
