<svg width="1821" height="787" viewBox="0 0 1821 787" fill="none" xmlns="http://www.w3.org/2000/svg">
<path d="M1620.69 778.63H1571.05C1564.05 777.7 1557.15 776.4 1550.15 775.97C1544.99 775.65 1542.44 773.27 1540.42 768.75C1519.6 722.343 1498.68 675.976 1477.67 629.65C1476.19 626.37 1474.59 623.14 1472.86 619.52C1470.79 622.19 1470.68 624.74 1470.02 627.06C1461.79 655.84 1448.84 682.25 1430.02 705.61C1403.78 738.24 1371.02 759.89 1328.77 766.07C1289.77 771.79 1251.29 769.77 1214 757.44C1138.58 732.5 1089 682.78 1071.87 603.73C1066.87 580.97 1070.11 559.61 1085.66 541.13C1098.49 525.88 1116.59 521.24 1135.16 528.44C1147.05 533.05 1155.54 541.34 1161.66 552.3C1166.81 561.734 1170.99 571.664 1174.14 581.94C1176.43 589.14 1177.8 596.79 1181.08 603.52C1204.19 651.02 1251.71 675.52 1300.62 665C1337.26 657.13 1363.62 636.41 1375.27 599.45C1379.34 586.708 1381.99 573.554 1383.17 560.23C1385.44 534.03 1380.76 509.45 1367.17 486.72C1341.84 444.27 1289.11 425.27 1242.4 445.35C1221.14 454.49 1204.49 469.35 1188.96 485.87C1181.12 494.2 1173.96 503.14 1165.51 510.93C1156.01 519.72 1145.2 525.65 1131.81 524.64C1107.97 522.85 1090.43 503.64 1088.92 478.96C1087.62 457.57 1094.09 438.61 1105.92 421.32C1149.51 357.46 1228.03 324.7 1307.8 342.8C1348.06 351.93 1382.62 372 1413.05 399.55C1417.83 403.87 1418.05 403.81 1419.91 397.55C1424.63 382.06 1429.12 366.5 1434.08 351.09C1466.76 249.57 1500.82 148.51 1535.26 47.5797C1537.55 40.3585 1540.6 33.3998 1544.35 26.8197C1551.28 15.2297 1560.65 6.57967 1573.81 2.57967C1598.12 -4.82033 1622.18 10.0197 1624.66 34.0397C1625.39 41.1597 1623.66 48.0397 1621.37 54.7397C1616.58 68.5397 1611.63 82.2797 1606.75 96.0497C1581.22 168.05 1553.37 239.18 1528.86 311.53C1528.29 313.22 1527.8 314.93 1527.27 316.63C1534.87 299.33 1541.86 281.87 1549.08 264.51C1571.08 211.68 1595.71 160.05 1618.9 107.76C1629.4 84.0897 1640.59 60.7597 1654.98 39.1497C1663.42 26.4597 1674.52 17.5897 1689.67 14.2997C1714.07 9.00967 1735.56 27.2997 1734.13 52.1997C1733.39 64.9297 1728.57 76.5297 1724.13 88.1997C1700.5 149.89 1672.25 209.56 1644.6 269.49C1628.17 305.13 1610.66 340.27 1594.92 376.23C1593.71 379 1592.62 381.81 1591.47 384.61C1592.95 383.825 1594.13 382.573 1594.82 381.05C1632.88 309.97 1669.09 237.95 1705.89 166.22C1714.48 149.443 1723.96 133.137 1734.28 117.37C1740.79 107.43 1748.43 98.5097 1758.83 92.3097C1783.28 77.7297 1810.18 87.5497 1819.26 114.41C1819.6 115.41 1819.96 116.41 1820.26 117.41V136.41C1817.93 144.525 1814.96 152.443 1811.38 160.09C1791.38 201.82 1771.25 243.5 1751.65 285.42C1724.89 342.7 1701.41 401.33 1680.41 460.96C1679.66 462.918 1679.32 465.009 1679.41 467.103C1679.5 469.198 1680.02 471.252 1680.93 473.14C1687.5 487.93 1693.7 502.89 1700.27 517.69C1716.9 555.15 1731.5 593.52 1751.2 629.6C1761.66 648.75 1771.37 668.3 1781.58 687.6C1783.34 690.92 1783.58 693.6 1781.38 696.83C1774 707.83 1765.96 718.29 1755.95 727.04C1727.19 752.16 1693.1 765.94 1656.17 773.64C1644.45 776.09 1632.52 776.99 1620.69 778.63Z" fill="#F23005"/>
<path d="M497.7 387.82V384.22C497.7 370.72 490.5 360.82 476.1 359.02L365.4 342.82C339.3 339.22 322.2 349.12 322.2 368.92V374.32C296.1 350.92 260.1 336.52 213.3 336.52C99.9 336.52 0 427.42 0 561.52C0 709.12 103.5 786.52 212.4 786.52C256.5 786.52 296.1 772.12 322.2 746.92V755.02C322.2 768.52 332.1 777.52 345.6 777.52H474.3C486 777.52 494.1 771.22 494.1 760.42V756.82C494.1 731.62 458.1 720.82 458.1 679.42V468.82C458.1 419.32 497.7 406.72 497.7 387.82ZM248.4 742.42C180.9 739.72 151.2 566.92 153.9 491.32C156.6 419.32 180.9 380.62 225 380.62C266.4 380.62 306 425.62 306 493.12V666.82C306 715.42 279 743.32 248.4 742.42Z" fill="black"/>
<path d="M1000.41 679.42V121.42C1000.41 97.1195 986.906 91.7195 960.806 99.8195L820.406 142.12C807.806 145.72 799.706 155.62 799.706 165.52V168.219C799.706 194.32 847.406 199.72 847.406 242.02V361.72C823.106 345.52 792.506 336.52 754.706 336.52C641.306 336.52 541.406 427.42 541.406 561.52C541.406 709.12 644.906 786.52 753.806 786.52C797.906 786.52 836.606 772.12 863.606 746.92V755.02C863.606 768.52 872.606 777.52 887.006 777.52H1015.71C1028.31 777.52 1036.41 771.22 1036.41 760.42V756.82C1036.41 731.62 1000.41 720.82 1000.41 679.42ZM789.806 742.42C722.306 739.72 692.606 566.92 695.306 491.32C698.006 419.32 722.306 380.62 766.406 380.62C807.806 380.62 847.406 435.52 847.406 493.12V666.82C847.406 715.42 820.406 743.32 789.806 742.42Z" fill="black"/>
</svg>
