<?xml version="1.0" encoding="utf-8"?>
<!-- Generator: Adobe Illustrator 26.1.0, SVG Export Plug-In . SVG Version: 6.00 Build 0)  -->
<svg version="1.1" id="Livello_1" xmlns="http://www.w3.org/2000/svg" xmlns:xlink="http://www.w3.org/1999/xlink" x="0px" y="0px"
	 viewBox="0 0 1821 787" style="enable-background:new 0 0 1821 787;" xml:space="preserve">
<style type="text/css">
	.st0{fill:#F23005;}
</style>
<path class="st0" d="M1620.7,778.6h-49.6c-7-0.9-13.9-2.2-20.9-2.7c-5.2-0.3-7.7-2.7-9.7-7.2c-20.8-46.4-41.7-92.8-62.8-139.1
	c-1.5-3.3-3.1-6.5-4.8-10.1c-2.1,2.7-2.2,5.2-2.8,7.5c-8.2,28.8-21.2,55.2-40,78.5c-26.2,32.6-59,54.3-101.2,60.5
	c-39,5.7-77.5,3.7-114.8-8.6c-75.4-24.9-125-74.7-142.1-153.7c-5-22.8-1.8-44.1,13.8-62.6c12.8-15.2,30.9-19.9,49.5-12.7
	c11.9,4.6,20.4,12.9,26.5,23.9c5.2,9.4,9.3,19.4,12.5,29.6c2.3,7.2,3.7,14.8,6.9,21.6c23.1,47.5,70.6,72,119.5,61.5
	c36.6-7.9,63-28.6,74.7-65.5c4.1-12.7,6.7-25.9,7.9-39.2c2.3-26.2-2.4-50.8-16-73.5c-25.3-42.5-78.1-61.5-124.8-41.4
	c-21.3,9.1-37.9,24-53.4,40.5c-7.8,8.3-15,17.3-23.4,25.1c-9.5,8.8-20.3,14.7-33.7,13.7c-23.8-1.8-41.4-21-42.9-45.7
	c-1.3-21.4,5.2-40.4,17-57.6c43.6-63.9,122.1-96.6,201.9-78.5c40.3,9.1,74.8,29.2,105.2,56.8c4.8,4.3,5,4.3,6.9-2
	c4.7-15.5,9.2-31,14.2-46.5c32.7-101.5,66.7-202.6,101.2-303.5c2.3-7.2,5.3-14.2,9.1-20.8c6.9-11.6,16.3-20.2,29.5-24.2
	c24.3-7.4,48.4,7.4,50.8,31.5c0.7,7.1-1,14-3.3,20.7c-4.8,13.8-93.6,260.2-94.1,261.9c7.6-17.3,113.3-255.9,127.7-277.5
	c8.4-12.7,19.5-21.6,34.7-24.9c24.4-5.3,45.9,13,44.5,37.9c-0.7,12.7-5.6,24.3-10,36C1700.8,150,1613.2,345,1612,347.8
	c1.5-0.8,112.2-214.6,122.5-230.3c6.5-9.9,14.2-18.9,24.5-25.1c24.5-14.6,51.4-4.8,60.4,22.1c0.3,1,0.7,2,1,3v19
	c-2.3,8.1-5.3,16-8.9,23.7c-20,41.7-40.1,83.4-59.7,125.3c-26.8,57.3-50.2,115.9-71.2,175.5c-0.8,2-1.1,4-1,6.1s0.6,4.1,1.5,6
	c6.6,14.8,12.8,29.8,19.3,44.5c16.6,37.5,31.2,75.8,50.9,111.9c10.5,19.2,20.2,38.7,30.4,58c1.8,3.3,2,6-0.2,9.2
	c-7.4,11-15.4,21.5-25.4,30.2c-28.8,25.1-62.8,38.9-99.8,46.6C1644.4,776.1,1632.5,777,1620.7,778.6z"/>
<path d="M497.7,387.8v-3.6c0-13.5-7.2-23.4-21.6-25.2l-110.7-16.2c-26.1-3.6-43.2,6.3-43.2,26.1v5.4
	c-26.1-23.4-62.1-37.8-108.9-37.8C99.9,336.5,0,427.4,0,561.5c0,147.6,103.5,225,212.4,225c44.1,0,83.7-14.4,109.8-39.6v8.1
	c0,13.5,9.9,22.5,23.4,22.5h128.7c11.7,0,19.8-6.3,19.8-17.1v-3.6c0-25.2-36-36-36-77.4V468.8C458.1,419.3,497.7,406.7,497.7,387.8z
	 M248.4,742.4c-67.5-2.7-97.2-175.5-94.5-251.1c2.7-72,27-110.7,71.1-110.7c41.4,0,81,45,81,112.5v173.7
	C306,715.4,279,743.3,248.4,742.4z"/>
<path d="M1000.4,679.4v-558c0-24.3-13.5-29.7-39.6-21.6l-140.4,42.3c-12.6,3.6-20.7,13.5-20.7,23.4v2.7c0,26.1,47.7,31.5,47.7,73.8
	v119.7c-24.3-16.2-54.9-25.2-92.7-25.2c-113.4,0-213.3,90.9-213.3,225c0,147.6,103.5,225,212.4,225c44.1,0,82.8-14.4,109.8-39.6v8.1
	c0,13.5,9,22.5,23.4,22.5h128.7c12.6,0,20.7-6.3,20.7-17.1v-3.6C1036.4,731.6,1000.4,720.8,1000.4,679.4z M789.8,742.4
	c-67.5-2.7-97.2-175.5-94.5-251.1c2.7-72,27-110.7,71.1-110.7c41.4,0,81,54.9,81,112.5v173.7C847.4,715.4,820.4,743.3,789.8,742.4z"
	/>
</svg>
