<svg width="49" height="49" viewBox="0 0 49 49" fill="none" xmlns="http://www.w3.org/2000/svg">
<path d="M24.5 49C38.031 49 49 38.031 49 24.5C49 10.969 38.031 0 24.5 0C10.969 0 0 10.969 0 24.5C0 34.4402 5.91972 42.9978 14.4261 46.8397C14.4375 46.5746 14.4504 46.3316 14.4614 46.1232C14.4764 45.8391 14.488 45.6193 14.488 45.4958C14.488 44.7596 14.9886 41.1082 14.9886 41.1082L18.0511 28.5342C17.5799 27.7686 17.2266 26.149 17.2266 24.9122C17.2266 19.1995 20.4069 17.9627 22.3504 17.9627C24.8239 17.9627 25.3834 20.6424 25.3834 22.6154C25.3834 23.659 24.8421 25.2925 24.285 26.9734C23.6946 28.755 23.0865 30.5899 23.0865 31.8323C23.0865 34.247 25.4718 35.4543 27.1208 35.4543C31.479 35.4543 35.4838 29.9771 35.4838 24.5C35.4838 19.0228 32.9219 12.3972 24.5295 12.3972C16.137 12.3972 12.3678 18.7872 12.3678 23.6755C12.3678 26.9735 13.6046 29.3882 14.223 29.8005C14.3996 29.9575 14.7 30.4424 14.488 31.1256C14.276 31.8088 13.8892 33.3341 13.7224 34.0114C13.7027 34.1684 13.5162 34.4354 12.9273 34.247C12.1911 34.0114 7.50902 31.0667 7.50902 23.6755C7.50902 16.2842 13.3101 7.68568 24.5295 7.68568C35.7488 7.68568 41.491 15.2241 41.491 24.5C41.491 33.7758 33.982 39.6947 28.2692 39.6947C23.699 39.6947 21.9087 37.653 21.5847 36.6322L19.8474 43.2578C19.4371 44.357 18.6718 46.3326 17.7282 48.0521C19.8789 48.6694 22.1508 49 24.5 49Z" fill="white"/>
</svg>
