<svg width="54" height="53" viewBox="0 0 54 53" fill="none" xmlns="http://www.w3.org/2000/svg">
<path d="M3.7876 16.465C4.0045 13.1876 6.68916 10.6192 10.0313 10.4566C14.8709 10.2213 21.7881 9.9375 27 9.9375C32.2119 9.9375 39.1291 10.2213 43.9687 10.4566C47.3108 10.6192 49.9955 13.1876 50.2124 16.465C50.4202 19.6049 50.625 23.4685 50.625 26.5C50.625 29.5315 50.4202 33.3951 50.2124 36.535C49.9955 39.8124 47.3108 42.3808 43.9687 42.5434C39.1291 42.7787 32.2119 43.0625 27 43.0625C21.7881 43.0625 14.8709 42.7787 10.0313 42.5434C6.68916 42.3808 4.0045 39.8124 3.7876 36.535C3.5798 33.3951 3.375 29.5315 3.375 26.5C3.375 23.4685 3.5798 19.6049 3.7876 16.465Z" fill="white"/>
<path d="M21.9375 19.875V33.125L35.4375 26.5L21.9375 19.875Z" fill="#F45835"/>
</svg>
